<svg width="188" height="34" viewBox="0 0 188 34" fill="none" xmlns="http://www.w3.org/2000/svg">
<path d="M19.901 29.57C19.901 29.3407 20.6607 26.2017 22.18 20.153L19.6 19.465L20.46 14.649L23.255 13.961L24.158 5.275C24.3873 3.211 25.6343 1.90667 27.899 1.362C29.0743 1.104 30.1493 0.946332 31.124 0.888998C32.1273 0.802999 33.4747 0.76 35.166 0.76L34.435 7.081C34.349 7.081 33.2023 7.18133 30.995 7.382L30.479 12.413C30.3357 13.6457 30.0203 14.5773 29.533 15.208C29.0743 15.8387 28.4437 16.369 27.641 16.799L27.555 17.315C28.6157 18.1177 29.146 19.2213 29.146 20.626C29.146 21.1133 29.0457 21.7297 28.845 22.475L27.598 26.646L30.952 26.947L29.447 33.268C26.609 33.268 24.545 33.1247 23.255 32.838C21.965 32.5513 21.0763 32.1357 20.589 31.591C20.1303 31.075 19.901 30.4013 19.901 29.57ZM18.611 29.871L0.25 27.936H18.869C18.697 28.5667 18.611 29.2117 18.611 29.871ZM20.46 21.572L1.712 19.637H18.267L18.138 20.411L20.589 21.056L20.46 21.572ZM18.654 17.444L2.443 15.509H18.998L18.654 17.444ZM22.094 12.929L20.976 13.187L3.174 11.381H22.266L22.094 12.929ZM22.481 9.188L3.905 7.253H22.653L22.481 9.188ZM19.428 25.7L0.981 23.765H19.901L19.428 25.7ZM22.868 5.06L4.636 3.125H23.556C23.212 3.555 22.9827 4.2 22.868 5.06ZM46.3305 23.12C47.1619 23.12 47.7065 23.0053 47.9645 22.776C48.2512 22.518 48.4232 22.2027 48.4805 21.83L50.5445 10.005H47.1905L48.4375 3.125H59.9615L56.4785 22.905C56.0772 25.227 55.2172 26.99 53.8985 28.194C52.6085 29.398 50.9459 30 48.9105 30H42.5465L43.7935 23.12H46.3305ZM41.2565 29.871L23.0245 27.936H41.6005L41.2565 29.871ZM47.1905 21.572L28.9585 19.637H47.5345L47.1905 21.572ZM47.9215 17.444L29.6895 15.509H48.2655L47.9215 17.444ZM48.6525 13.316L30.4205 11.381H48.9965L48.6525 13.316ZM45.9865 9.188L27.7545 7.253H46.2875L45.9865 9.188ZM41.9875 25.7L23.7555 23.765H42.3315L41.9875 25.7ZM46.7605 5.06L28.5715 3.125H47.1045L46.7605 5.06ZM70.385 13.316L52.153 11.381H70.686C70.5427 11.9543 70.4423 12.5993 70.385 13.316ZM71.847 7.253L71.202 9.145L53.357 7.253H71.847ZM70.385 15.509C70.4423 16.283 70.557 16.928 70.729 17.444L52.54 15.509H70.385ZM76.405 21.572L53.658 19.637H72.191C73.137 20.5543 74.5417 21.1993 76.405 21.572ZM75.072 3.125C74.4127 3.555 73.782 4.14267 73.18 4.888L56.582 3.125H75.072ZM52.927 23.765H69.009L68.364 25.657L52.927 23.765ZM52.196 27.936H67.633L66.988 29.828L52.196 27.936ZM70.858 22.432C73.266 23.0913 75.459 23.421 77.437 23.421C79.4437 23.421 81.0777 23.335 82.339 23.163L82.683 21.013L79.114 20.669C76.3907 20.411 74.4557 19.7947 73.309 18.82C72.191 17.8453 71.632 16.4693 71.632 14.692C71.632 13.918 71.718 13.058 71.89 12.112C72.5493 8.44267 73.7533 5.92 75.502 4.544C77.2507 3.168 79.931 2.48 83.543 2.48C87.1837 2.48 90.3944 2.83833 93.175 3.555L90.939 10.435C88.445 10.005 86.4384 9.79 84.919 9.79C83.4284 9.79 82.1384 9.86167 81.049 10.005L80.705 12.112L83.586 12.413C86.51 12.7283 88.5884 13.4307 89.821 14.52C91.0537 15.5807 91.67 17.014 91.67 18.82C91.67 20.6547 91.283 22.5467 90.509 24.496C90.079 25.4993 89.6203 26.345 89.133 27.033C88.6743 27.6923 88.0724 28.2657 87.327 28.753C86.6104 29.2117 85.951 29.57 85.349 29.828C84.747 30.0573 83.973 30.2293 83.027 30.344C81.7084 30.5447 80.0744 30.645 78.125 30.645C74.5703 30.645 71.3453 30.2723 68.45 29.527L70.858 22.432ZM114.024 23.292C115.142 23.292 115.973 23.163 116.518 22.905C117.062 22.6183 117.421 21.9877 117.593 21.013L119.571 9.833H116.131C115.041 9.833 114.224 9.97633 113.68 10.263C113.135 10.521 112.777 11.1373 112.605 12.112L110.627 23.292H114.024ZM117.55 2.48C121.19 2.48 123.785 3.19666 125.333 4.63C126.881 6.03467 127.655 8.21333 127.655 11.166C127.655 14.1187 127.182 17.2147 126.236 20.454C125.318 23.6647 123.842 26.173 121.807 27.979C119.8 29.7563 116.847 30.645 112.949 30.645C109.079 30.645 106.37 29.9427 104.822 28.538C103.274 27.1047 102.5 24.9117 102.5 21.959C102.5 20.5543 102.7 18.7053 103.102 16.412C103.503 14.09 104.033 12.0977 104.693 10.435C105.352 8.74367 106.241 7.28167 107.359 6.049C109.509 3.66966 112.906 2.48 117.55 2.48ZM101.855 16.369C101.797 16.5983 101.74 16.9137 101.683 17.315L84.7836 15.509H101.984L101.855 16.369ZM101.382 19.637C101.296 20.2963 101.253 20.8983 101.253 21.443L84.3106 19.637H101.382ZM103.016 11.381L102.5 13.144L85.8156 11.381H103.016ZM101.296 23.765C101.41 24.5677 101.511 25.1697 101.597 25.571L84.8696 23.765H101.296ZM104.779 7.253C104.377 7.99833 104.091 8.57167 103.919 8.973L87.8366 7.253H104.779ZM102.586 27.936C102.958 28.5953 103.388 29.1257 103.876 29.527L88.9976 27.936H102.586ZM108.864 3.125C108.032 3.641 107.387 4.114 106.929 4.544L93.7706 3.125H108.864ZM148.055 20.454C147.94 20.2533 147.883 19.981 147.883 19.637C147.883 19.2643 147.912 18.8487 147.969 18.39H147.625L145.604 30H137.434L142.164 3.125H149.861L154.247 12.671C154.333 12.8717 154.376 13.1583 154.376 13.531C154.376 13.875 154.347 14.2763 154.29 14.735H154.634L156.698 3.125H164.868L160.138 30H152.441L148.055 20.454ZM136.144 29.871L117.912 27.936H136.488L136.144 29.871ZM137.606 21.572L119.374 19.637H137.95L137.606 21.572ZM138.337 17.444L120.105 15.509H138.681L138.337 17.444ZM139.068 13.316L120.836 11.381H139.412L139.068 13.316ZM139.799 9.188L121.567 7.253H140.1L139.799 9.188ZM136.875 25.7L118.643 23.765H137.219L136.875 25.7ZM140.487 5.06L122.298 3.125H140.831L140.487 5.06ZM187.382 4.458C187.382 4.68733 186.623 7.82633 185.103 13.875L187.683 14.563L186.823 19.379L184.028 20.067L183.125 28.753C182.896 30.817 181.649 32.1213 179.384 32.666C178.209 32.924 177.12 33.0817 176.116 33.139C175.142 33.225 173.809 33.268 172.117 33.268L172.848 26.947L176.288 26.646L176.804 21.615C176.948 20.3823 177.249 19.4507 177.707 18.82C178.195 18.1893 178.84 17.659 179.642 17.229L179.728 16.713C178.668 15.9103 178.137 14.8067 178.137 13.402C178.137 12.9147 178.238 12.2983 178.438 11.553L179.685 7.382L176.331 7.081L177.836 0.76C180.674 0.76 182.738 0.903333 184.028 1.19C185.318 1.47667 186.193 1.89233 186.651 2.437C187.139 2.953 187.382 3.62667 187.382 4.458ZM171.214 29.871L156.207 27.936H171.429L171.214 29.871ZM177.707 9.575L159.862 7.253H174.955L174.74 8.242L178.008 8.543L177.707 9.575ZM175.514 5.06L160.593 3.125H175.944L175.514 5.06ZM178.137 17.014L177.535 17.401L158.4 15.509H177.234C177.464 16.0823 177.765 16.584 178.137 17.014ZM175.514 21.529L157.669 19.637H175.901C175.672 20.2963 175.543 20.927 175.514 21.529ZM175.127 25.442L156.938 23.765H175.299L175.127 25.442ZM176.847 13.316L159.131 11.381H177.148C176.948 12.1263 176.847 12.7713 176.847 13.316Z" fill="#111827"/>
</svg>
